<svg width="497" height="110" viewBox="0 0 497 110" fill="none" xmlns="http://www.w3.org/2000/svg">
<path d="M138.078 41.5078L127.063 99H110.476L127.822 8.18555H149.98L173.846 81.7267C174.479 77.3009 174.965 73.9492 175.303 71.6716C175.682 69.3517 176.062 67.2034 176.442 65.2267L187.457 8.18555H204.044L186.697 99H164.161L140.484 26.1035C140.019 29.584 139.576 32.6133 139.154 35.1914C138.774 37.7696 138.416 39.875 138.078 41.5078ZM287.474 84.3046L284.626 99H211.949L229.232 8.18555H299.376L296.591 22.8809H245.122L240.754 45.6973H288.361L285.575 60.3928H237.968L233.41 84.3046H287.474ZM331.402 64.5821L324.881 99H306.205L323.552 8.18555H364.764C371.517 8.18555 377.278 9.2383 382.047 11.3438C386.816 13.4492 390.446 16.4571 392.936 20.3672C395.426 24.2773 396.671 28.875 396.671 34.1602C396.671 41.25 394.371 47.2656 389.77 52.2071C385.212 57.1483 379.008 60.2206 371.158 61.424L388.504 99H367.866L353.306 64.5821H331.402ZM359.13 49.7578C365.249 49.7578 369.871 48.5117 372.994 46.0196C376.16 43.4844 377.742 39.8965 377.742 35.2559C377.742 31.2598 376.391 28.209 373.69 26.1035C371.031 23.998 367.275 22.9453 362.422 22.9453H339.378L334.25 49.7578H359.13Z" fill="black"/>
<path d="M446.762 100.225C434.1 100.225 424.182 96.8302 417.008 90.041C409.833 83.2089 406.245 73.6697 406.245 61.424C406.245 50.6387 408.461 41.0996 412.892 32.8066C417.282 24.4707 423.507 18.0684 431.568 13.5996C439.671 9.08786 448.998 6.83203 459.55 6.83203C469.172 6.83203 477.212 9.0449 483.669 13.4707C490.169 17.8965 494.537 24.084 496.774 32.0332L478.921 37.0605C477.697 32.2051 475.334 28.4453 471.831 25.7812C468.328 23.1172 463.897 21.7852 458.537 21.7852C451.826 21.7852 445.938 23.3965 440.874 26.6191C435.809 29.8418 431.927 34.4179 429.226 40.3477C426.525 46.2773 425.174 53.1094 425.174 60.8437C425.174 68.492 427.179 74.5079 431.188 78.8909C435.24 83.2304 440.938 85.4001 448.281 85.4001C452.839 85.4001 457.271 84.8419 461.576 83.7248C465.88 82.6072 469.552 81.1035 472.591 79.2126L475.503 64.5177H453.852L456.321 51.1113H495.191L488.544 87.7206C481.96 92.3186 475.377 95.5625 468.792 97.4534C462.208 99.3008 454.865 100.225 446.762 100.225Z" fill="black"/>
<mask id="mask0_746_993" style="mask-type:luminance" maskUnits="userSpaceOnUse" x="2" y="5" width="98" height="100">
<path d="M99.5179 5.5H2.27881V104.5H99.5179V5.5Z" fill="white"/>
</mask>
<g mask="url(#mask0_746_993)">
<path d="M67.1047 71.5C73.8179 71.5 79.2596 77.0401 79.2596 83.875C79.2596 90.7098 73.8179 96.25 67.1047 96.25C60.3914 96.25 54.9498 90.7098 54.9498 83.875C54.9498 77.0401 60.3914 71.5 67.1047 71.5ZM26.5884 55C35.5425 55 42.7949 62.3838 42.7949 71.5C42.7949 80.6162 35.5425 88 26.5884 88C17.6343 88 10.3818 80.6162 10.3818 71.5C10.3818 62.3838 17.6343 55 26.5884 55ZM61.0272 13.75C73.3361 13.75 83.3112 23.9057 83.3112 36.4375C83.3112 48.9692 73.3361 59.125 61.0272 59.125C48.7184 59.125 38.7432 48.9692 38.7432 36.4375C38.7432 23.9057 48.7184 13.75 61.0272 13.75Z" fill="black"/>
</g>
</svg>
